<svg version="1.1" xmlns="http://www.w3.org/2000/svg" xmlns:xlink="http://www.w3.org/1999/xlink" viewBox="0 0 100 100" enable-background="new 0 0 100 100">
<circle cx="50" cy="50" fill="#000000" r="50"/>
<path fill="#ffffff" d="M56.871,76.545c9.459,0.143,11.154-9.406,12.404-11.02c1.254,2.766,6.73,11.523,13.275,11.277c10.395-0.389,14.369-10.473,7.174-17.434c-4.156-4.021-9.289-5.24-11.672-1.908c-3.039,4.246,7.469,2.35,9.143,7.852c1.064,3.494-2.121,6.049-5.02,5.82c-3.406-0.27-7.949-9.213-8.795-11.467c-1.752-4.658-0.895-7.119-0.115-11.723c1.264-7.461,2.604-11.496,3.066-16.23c0.324-3.284,0.924-4.002-2.82-6.644c-3.07-2.162-4.623,3.352-5.656,6.64c-2.236,7.12-2.938,16.593-4.975,26.484c-1.568,10.637-8.67,11.967-11.533,7.648c-2.658-4.006-0.602-7.863-2.264-11.363c-2.179-4.583-5.321-6.829-10.366-6.274c-1.089,0.119-2.174,0.3-3.259,0.452l-0.126,0.169c0,0,0.155-0.14,0.155-0.141c0.315-0.379,0.6-0.787,0.95-1.131c5.213-5.12,10.244-9.22,16.169-13.433c3.789-2.692,7.146-4.963,5.115-8.305c-1.535-2.521-5.535-2.095-9.432,0.633c-8.356,5.849-12.705,10.858-18.422,16.977c-0.555,0.594-1.676,2.195-2.016,1.583c0.044-4.415,0.284-8.781,0.09-13.13c-0.322-7.179-5.078-10.28-11.919-7.896c-2.346,0.818-4.578,1.957-6.86,2.955c-2.369,1.036-2.744,2.927-2.461,5.268c0.333,2.749,2.533,3.611,5.207,3.303c1.588-0.183,2.763-1.109,3.952-1.987c2.066-1.527,3.057-0.718,3.473,1.463c0.39,2.051,0.573,4.117,0.588,6.215c0.071,10.25-0.344,18.89-1.167,29.078c-0.264,3.266-0.425,5.52,3.438,5.91c3.667,0.371,5.338-1.031,5.403-4.301c0.068-3.477,0.054-6.955,0.026-10.432c-0.015-2.018,0.92-3.313,2.682-4.258c5.532-2.971,9.697-1.303,11.378,4.752C42.775,65.869,40.752,75.877,56.871,76.545z" />
</svg>
